<svg width="1631" height="191" viewBox="0 0 1631 191" fill="none" xmlns="http://www.w3.org/2000/svg">
<path d="M51.4 11.4V15.4C46.8667 15.5333 43.4 16.0667 41 17C38.7333 17.8 37.2 19.4 36.4 21.8C35.6 24.0667 35.2 27.6667 35.2 32.6V131.8C35.2 136.6 35.6 140.2 36.4 142.6C37.2 145 38.7333 146.6 41 147.4C43.4 148.2 46.8667 148.733 51.4 149V153C48.3333 152.733 44.4667 152.6 39.8 152.6C35.2667 152.467 30.6667 152.4 26 152.4C20.8 152.4 15.9333 152.467 11.4 152.6C6.86667 152.6 3.2 152.733 0.400001 153V149C4.93333 148.733 8.33333 148.2 10.6 147.4C13 146.6 14.6 145 15.4 142.6C16.2 140.2 16.6 136.6 16.6 131.8V32.6C16.6 27.6667 16.2 24.0667 15.4 21.8C14.6 19.4 13 17.8 10.6 17C8.33333 16.0667 4.93333 15.5333 0.400001 15.4V11.4C3.2 11.5333 6.86667 11.6667 11.4 11.8C15.9333 11.9333 20.8 12 26 12C30.6667 12 35.2667 11.9333 39.8 11.8C44.4667 11.6667 48.3333 11.5333 51.4 11.4ZM132.773 47.2C137.84 47.2 142.04 47.8667 145.373 49.2C148.84 50.5333 151.707 52.4 153.973 54.8C156.507 57.4667 158.307 60.8 159.373 64.8C160.44 68.8 160.973 74.2 160.973 81V134.4C160.973 140 162.107 143.8 164.373 145.8C166.773 147.8 170.707 148.8 176.173 148.8V153C173.907 152.867 170.44 152.733 165.773 152.6C161.107 152.333 156.573 152.2 152.173 152.2C147.773 152.2 143.44 152.333 139.173 152.6C135.04 152.733 131.907 152.867 129.773 153V148.8C134.573 148.8 137.973 147.8 139.973 145.8C141.973 143.8 142.973 140 142.973 134.4V76.6C142.973 72.4667 142.64 68.6667 141.973 65.2C141.307 61.7333 139.773 58.9333 137.373 56.8C135.107 54.6667 131.573 53.6 126.773 53.6C121.173 53.6 116.24 55.2 111.973 58.4C107.84 61.6 104.573 66 102.173 71.6C99.9068 77.0667 98.7734 83.2 98.7734 90V134.4C98.7734 140 99.7734 143.8 101.773 145.8C103.773 147.8 107.173 148.8 111.973 148.8V153C109.84 152.867 106.64 152.733 102.373 152.6C98.2401 152.333 93.9734 152.2 89.5734 152.2C85.1734 152.2 80.6401 152.333 75.9734 152.6C71.3068 152.733 67.8401 152.867 65.5734 153V148.8C71.0401 148.8 74.9068 147.8 77.1734 145.8C79.5734 143.8 80.7734 140 80.7734 134.4V71.8C80.7734 65.8 79.7068 61.4 77.5734 58.6C75.4401 55.6667 71.4401 54.2 65.5734 54.2V50C69.8401 50.4 73.9734 50.6 77.9734 50.6C81.8401 50.6 85.5068 50.4 88.9734 50C92.5734 49.4667 95.8401 48.7333 98.7734 47.8V71.4C102.24 62.3333 107.04 56.0667 113.173 52.6C119.44 49 125.973 47.2 132.773 47.2ZM288.314 11.4V15.4C283.781 15.5333 280.314 16.0667 277.914 17C275.647 17.8 274.114 19.4 273.314 21.8C272.514 24.0667 272.114 27.6667 272.114 32.6V131.8C272.114 136.6 272.514 140.2 273.314 142.6C274.114 145 275.647 146.6 277.914 147.4C280.314 148.067 283.781 148.4 288.314 148.4H302.914C309.181 148.4 314.247 147.733 318.114 146.4C322.114 145.067 325.247 143 327.514 140.2C329.914 137.267 331.714 133.4 332.914 128.6C334.114 123.8 335.047 117.933 335.714 111H340.314C339.914 115.133 339.714 120.6 339.714 127.4C339.714 129.933 339.781 133.6 339.914 138.4C340.181 143.067 340.581 147.933 341.114 153C334.314 152.733 326.647 152.6 318.114 152.6C309.581 152.467 301.981 152.4 295.314 152.4C292.381 152.4 288.581 152.4 283.914 152.4C279.381 152.4 274.447 152.467 269.114 152.6C263.781 152.6 258.381 152.667 252.914 152.8C247.447 152.8 242.247 152.867 237.314 153V149C241.847 148.733 245.247 148.2 247.514 147.4C249.914 146.6 251.514 145 252.314 142.6C253.114 140.2 253.514 136.6 253.514 131.8V32.6C253.514 27.6667 253.114 24.0667 252.314 21.8C251.514 19.4 249.914 17.8 247.514 17C245.247 16.0667 241.847 15.5333 237.314 15.4V11.4C240.114 11.5333 243.781 11.6667 248.314 11.8C252.847 11.9333 257.714 12 262.914 12C267.581 12 272.181 11.9333 276.714 11.8C281.381 11.6667 285.247 11.5333 288.314 11.4ZM401.292 47.2C409.826 47.2 417.492 49.0667 424.292 52.8C431.092 56.5333 436.492 62.4 440.492 70.4C444.626 78.4 446.692 88.8 446.692 101.6C446.692 114.4 444.626 124.8 440.492 132.8C436.492 140.667 431.092 146.467 424.292 150.2C417.492 153.933 409.826 155.8 401.292 155.8C392.892 155.8 385.226 153.933 378.292 150.2C371.492 146.467 366.026 140.667 361.892 132.8C357.892 124.8 355.892 114.4 355.892 101.6C355.892 88.8 357.892 78.4 361.892 70.4C366.026 62.4 371.492 56.5333 378.292 52.8C385.226 49.0667 392.892 47.2 401.292 47.2ZM401.292 51.2C393.692 51.2 387.426 55.1333 382.492 63C377.692 70.8667 375.292 83.7333 375.292 101.6C375.292 119.467 377.692 132.333 382.492 140.2C387.426 147.933 393.692 151.8 401.292 151.8C408.892 151.8 415.092 147.933 419.892 140.2C424.826 132.333 427.292 119.467 427.292 101.6C427.292 83.7333 424.826 70.8667 419.892 63C415.092 55.1333 408.892 51.2 401.292 51.2ZM551.895 50V54C549.362 54.2667 547.029 55.4 544.895 57.4C542.762 59.4 540.762 62.9333 538.895 68L506.095 154C505.562 154 505.029 154 504.495 154C503.962 154 503.362 154 502.695 154L465.895 65.4C463.762 60.2 461.629 57.0667 459.495 56C457.495 54.8 455.762 54.2 454.295 54.2V50C456.962 50.1333 459.695 50.3333 462.495 50.6C465.429 50.7333 468.562 50.8 471.895 50.8C476.029 50.8 480.362 50.7333 484.895 50.6C489.562 50.4667 493.895 50.2667 497.895 50V54.2C494.562 54.2 491.562 54.4667 488.895 55C486.362 55.4 484.695 56.6667 483.895 58.8C483.229 60.9333 483.895 64.6 485.895 69.8L510.895 131.6L509.695 132.6L532.495 72.8C534.229 68.4 534.895 64.9333 534.495 62.4C534.229 59.7333 532.895 57.7333 530.495 56.4C528.229 55.0667 524.695 54.2667 519.895 54V50C522.295 50.1333 524.362 50.2667 526.095 50.4C527.829 50.4 529.495 50.4667 531.095 50.6C532.829 50.6 534.695 50.6 536.695 50.6C539.762 50.6 542.495 50.5333 544.895 50.4C547.429 50.2667 549.762 50.1333 551.895 50ZM581.147 -9.05991e-06C584.614 -9.05991e-06 587.614 1.26666 590.147 3.79999C592.68 6.33332 593.947 9.33332 593.947 12.8C593.947 16.2667 592.68 19.2667 590.147 21.8C587.614 24.3333 584.614 25.6 581.147 25.6C577.68 25.6 574.68 24.3333 572.147 21.8C569.614 19.2667 568.347 16.2667 568.347 12.8C568.347 9.33332 569.614 6.33332 572.147 3.79999C574.68 1.26666 577.68 -9.05991e-06 581.147 -9.05991e-06ZM591.547 47.8V134.4C591.547 140 592.68 143.8 594.947 145.8C597.347 147.8 601.28 148.8 606.747 148.8V153C604.48 152.867 601.014 152.733 596.347 152.6C591.814 152.333 587.214 152.2 582.547 152.2C578.014 152.2 573.414 152.333 568.747 152.6C564.08 152.733 560.614 152.867 558.347 153V148.8C563.814 148.8 567.68 147.8 569.947 145.8C572.347 143.8 573.547 140 573.547 134.4V71.8C573.547 65.8 572.48 61.4 570.347 58.6C568.214 55.6667 564.214 54.2 558.347 54.2V50C562.614 50.4 566.747 50.6 570.747 50.6C574.614 50.6 578.28 50.4 581.747 50C585.347 49.4667 588.614 48.7333 591.547 47.8ZM684.141 47.2C689.207 47.2 693.407 47.8667 696.741 49.2C700.207 50.5333 703.074 52.4 705.341 54.8C707.874 57.4667 709.674 60.8 710.741 64.8C711.807 68.8 712.341 74.2 712.341 81V134.4C712.341 140 713.474 143.8 715.741 145.8C718.141 147.8 722.074 148.8 727.541 148.8V153C725.274 152.867 721.807 152.733 717.141 152.6C712.474 152.333 707.941 152.2 703.541 152.2C699.141 152.2 694.807 152.333 690.541 152.6C686.407 152.733 683.274 152.867 681.141 153V148.8C685.941 148.8 689.341 147.8 691.341 145.8C693.341 143.8 694.341 140 694.341 134.4V76.6C694.341 72.4667 694.007 68.6667 693.341 65.2C692.674 61.7333 691.141 58.9333 688.741 56.8C686.474 54.6667 682.941 53.6 678.141 53.6C672.541 53.6 667.607 55.2 663.341 58.4C659.207 61.6 655.941 66 653.541 71.6C651.274 77.0667 650.141 83.2 650.141 90V134.4C650.141 140 651.141 143.8 653.141 145.8C655.141 147.8 658.541 148.8 663.341 148.8V153C661.207 152.867 658.007 152.733 653.741 152.6C649.607 152.333 645.341 152.2 640.941 152.2C636.541 152.2 632.007 152.333 627.341 152.6C622.674 152.733 619.207 152.867 616.941 153V148.8C622.407 148.8 626.274 147.8 628.541 145.8C630.941 143.8 632.141 140 632.141 134.4V71.8C632.141 65.8 631.074 61.4 628.941 58.6C626.807 55.6667 622.807 54.2 616.941 54.2V50C621.207 50.4 625.341 50.6 629.341 50.6C633.207 50.6 636.874 50.4 640.341 50C643.941 49.4667 647.207 48.7333 650.141 47.8V71.4C653.607 62.3333 658.407 56.0667 664.541 52.6C670.807 49 677.341 47.2 684.141 47.2ZM771.123 190.6C764.057 190.6 757.39 189.867 751.123 188.4C744.857 186.933 739.79 184.6 735.923 181.4C732.19 178.333 730.323 174.4 730.323 169.6C730.323 164.933 732.19 160.933 735.923 157.6C739.657 154.267 744.723 151.733 751.123 150L752.323 153.2C749.39 154.133 747.057 156 745.323 158.8C743.59 161.6 742.723 164.733 742.723 168.2C742.723 174.333 745.523 179 751.123 182.2C756.857 185.533 764.257 187.2 773.323 187.2C779.323 187.2 785.19 186.4 790.923 184.8C796.657 183.333 801.39 180.8 805.123 177.2C808.857 173.6 810.723 168.867 810.723 163C810.723 158.6 809.123 155 805.923 152.2C802.857 149.267 796.723 147.8 787.523 147.8H772.723C768.457 147.8 764.323 147.467 760.323 146.8C756.323 146.133 753.057 144.733 750.523 142.6C747.99 140.467 746.723 137.2 746.723 132.8C746.723 128.267 748.59 123.933 752.323 119.8C756.057 115.533 762.923 111.2 772.923 106.8L775.323 108.6C770.79 111 766.857 113.467 763.523 116C760.19 118.4 758.523 121.267 758.523 124.6C758.523 128.867 761.723 131 768.123 131H793.123C798.723 131 803.857 131.8 808.523 133.4C813.323 135 817.19 137.533 820.123 141C823.057 144.467 824.523 149 824.523 154.6C824.523 160.867 822.523 166.733 818.523 172.2C814.523 177.667 808.523 182.067 800.523 185.4C792.657 188.867 782.857 190.6 771.123 190.6ZM772.123 110.4C765.59 110.4 759.657 109.333 754.323 107.2C748.99 104.933 744.79 101.467 741.723 96.8C738.657 92.1333 737.123 86.1333 737.123 78.8C737.123 71.4667 738.657 65.4667 741.723 60.8C744.79 56.1333 748.99 52.7333 754.323 50.6C759.657 48.3333 765.59 47.2 772.123 47.2C778.79 47.2 784.723 48.3333 789.923 50.6C795.257 52.7333 799.457 56.1333 802.523 60.8C805.59 65.4667 807.123 71.4667 807.123 78.8C807.123 86.1333 805.59 92.1333 802.523 96.8C799.457 101.467 795.257 104.933 789.923 107.2C784.723 109.333 778.79 110.4 772.123 110.4ZM772.123 106.8C777.19 106.8 781.123 104.8 783.923 100.8C786.857 96.8 788.323 89.4667 788.323 78.8C788.323 68.1333 786.857 60.8 783.923 56.8C781.123 52.8 777.19 50.8 772.123 50.8C767.19 50.8 763.257 52.8 760.323 56.8C757.39 60.8 755.923 68.1333 755.923 78.8C755.923 89.4667 757.39 96.8 760.323 100.8C763.257 104.8 767.19 106.8 772.123 106.8ZM800.923 63.8L797.323 62.4C799.19 57.8667 802.39 53.8667 806.923 50.4C811.457 46.9333 816.19 45.2 821.123 45.2C824.59 45.2 827.39 46.2 829.523 48.2C831.657 50.0667 832.723 52.9333 832.723 56.8C832.723 60.9333 831.59 63.8667 829.323 65.6C827.19 67.2 824.99 68 822.723 68C820.723 68 818.857 67.3333 817.123 66C815.39 64.5333 814.39 62.2667 814.123 59.2C813.857 56.1333 814.79 52.2 816.923 47.4L819.523 48C813.923 50.1333 809.923 52.4 807.523 54.8C805.123 57.0667 802.923 60.0667 800.923 63.8ZM1049.79 11.4V15.4C1045.26 15.5333 1041.79 16.0667 1039.39 17C1037.13 17.8 1035.59 19.4 1034.79 21.8C1033.99 24.0667 1033.59 27.6667 1033.59 32.6V131.8C1033.59 136.6 1033.99 140.2 1034.79 142.6C1035.59 145 1037.13 146.6 1039.39 147.4C1041.79 148.2 1045.26 148.733 1049.79 149V153C1046.73 152.733 1042.86 152.6 1038.19 152.6C1033.66 152.467 1029.06 152.4 1024.39 152.4C1019.19 152.4 1014.33 152.467 1009.79 152.6C1005.26 152.6 1001.59 152.733 998.792 153V149C1003.33 148.733 1006.73 148.2 1008.99 147.4C1011.39 146.6 1012.99 145 1013.79 142.6C1014.59 140.2 1014.99 136.6 1014.99 131.8V21.8L1015.79 22.4L966.792 154H963.592L913.192 24.2V129.8C913.192 134.6 913.592 138.4 914.392 141.2C915.326 143.867 917.059 145.8 919.592 147C922.259 148.067 926.192 148.733 931.392 149V153C928.992 152.733 925.859 152.6 921.992 152.6C918.126 152.467 914.459 152.4 910.992 152.4C907.659 152.4 904.259 152.467 900.792 152.6C897.459 152.6 894.659 152.733 892.392 153V149C896.926 148.733 900.326 148.067 902.592 147C904.992 145.8 906.592 143.867 907.392 141.2C908.192 138.4 908.592 134.6 908.592 129.8V32.6C908.592 27.6667 908.192 24.0667 907.392 21.8C906.592 19.4 904.992 17.8 902.592 17C900.326 16.0667 896.926 15.5333 892.392 15.4V11.4C894.659 11.5333 897.459 11.6667 900.792 11.8C904.259 11.9333 907.659 12 910.992 12C913.926 12 916.926 11.9333 919.992 11.8C923.192 11.6667 925.859 11.5333 927.992 11.4L973.392 131L969.992 132.6L1014.99 12C1016.59 12 1018.13 12 1019.59 12C1021.19 12 1022.79 12 1024.39 12C1029.06 12 1033.66 11.9333 1038.19 11.8C1042.86 11.6667 1046.73 11.5333 1049.79 11.4ZM1109.1 47.2C1120.83 47.2 1129.96 50.8 1136.5 58C1143.16 65.0667 1146.5 76.1333 1146.5 91.2H1075.9L1075.7 87.4H1127.3C1127.56 80.8667 1127.03 74.8667 1125.7 69.4C1124.36 63.8 1122.23 59.3333 1119.3 56C1116.5 52.6667 1112.83 51 1108.3 51C1102.16 51 1096.7 54.0667 1091.9 60.2C1087.23 66.3333 1084.43 76.0667 1083.5 89.4L1084.1 90.2C1083.83 92.2 1083.63 94.4 1083.5 96.8C1083.36 99.2 1083.3 101.6 1083.3 104C1083.3 113.067 1084.76 120.867 1087.7 127.4C1090.63 133.933 1094.43 138.933 1099.1 142.4C1103.9 145.733 1108.83 147.4 1113.9 147.4C1117.9 147.4 1121.7 146.8 1125.3 145.6C1128.9 144.267 1132.23 142.133 1135.3 139.2C1138.36 136.267 1141.03 132.333 1143.3 127.4L1147.3 129C1145.83 133.4 1143.43 137.667 1140.1 141.8C1136.76 145.933 1132.56 149.333 1127.5 152C1122.43 154.533 1116.56 155.8 1109.9 155.8C1100.3 155.8 1092.03 153.6 1085.1 149.2C1078.3 144.8 1073.03 138.733 1069.3 131C1065.7 123.133 1063.9 114.133 1063.9 104C1063.9 92.2667 1065.76 82.2 1069.5 73.8C1073.23 65.2667 1078.5 58.7333 1085.3 54.2C1092.1 49.5333 1100.03 47.2 1109.1 47.2ZM1227.67 47.2C1232.33 47.2 1236.4 47.8667 1239.87 49.2C1243.33 50.5333 1246.2 52.4 1248.47 54.8C1251 57.4667 1252.73 60.9333 1253.67 65.2C1254.6 69.4667 1255.07 74.7333 1255.07 81V134.4C1255.07 140 1256.2 143.8 1258.47 145.8C1260.87 147.8 1264.8 148.8 1270.27 148.8V153C1268 152.867 1264.53 152.733 1259.87 152.6C1255.2 152.333 1250.67 152.2 1246.27 152.2C1241.87 152.2 1237.53 152.333 1233.27 152.6C1229.13 152.733 1226 152.867 1223.87 153V148.8C1228.67 148.8 1232.07 147.8 1234.07 145.8C1236.07 143.8 1237.07 140 1237.07 134.4V76.6C1237.07 72.4667 1236.8 68.6667 1236.27 65.2C1235.73 61.7333 1234.4 58.9333 1232.27 56.8C1230.13 54.6667 1226.67 53.6 1221.87 53.6C1216.67 53.6 1212 55.2 1207.87 58.4C1203.87 61.6 1200.67 66 1198.27 71.6C1196 77.0667 1194.87 83.2 1194.87 90V134.4C1194.87 140 1195.87 143.8 1197.87 145.8C1199.87 147.8 1203.27 148.8 1208.07 148.8V153C1205.93 152.867 1202.73 152.733 1198.47 152.6C1194.33 152.333 1190.07 152.2 1185.67 152.2C1181.27 152.2 1176.73 152.333 1172.07 152.6C1167.4 152.733 1163.93 152.867 1161.67 153V148.8C1167.13 148.8 1171 147.8 1173.27 145.8C1175.67 143.8 1176.87 140 1176.87 134.4V71.8C1176.87 65.8 1175.8 61.4 1173.67 58.6C1171.53 55.6667 1167.53 54.2 1161.67 54.2V50C1165.93 50.4 1170.07 50.6 1174.07 50.6C1177.93 50.6 1181.6 50.4 1185.07 50C1188.67 49.4667 1191.93 48.7333 1194.87 47.8V71.4C1198.33 62.7333 1203.07 56.5333 1209.07 52.8C1215.07 49.0667 1221.27 47.2 1227.67 47.2ZM1287.87 47.2C1292.53 47.2 1296.6 47.8667 1300.07 49.2C1303.53 50.5333 1306.4 52.4 1308.67 54.8C1311.2 57.4667 1312.93 60.9333 1313.87 65.2C1314.8 69.4667 1315.27 74.7333 1315.27 81V134.4C1315.27 140 1316.4 143.8 1318.67 145.8C1321.07 147.8 1325 148.8 1330.47 148.8V153C1328.2 152.867 1324.73 152.733 1320.07 152.6C1315.4 152.333 1310.87 152.2 1306.47 152.2C1302.07 152.2 1297.73 152.333 1293.47 152.6C1289.33 152.733 1286.2 152.867 1284.07 153V148.8C1288.87 148.8 1292.27 147.8 1294.27 145.8C1296.27 143.8 1297.27 140 1297.27 134.4V76.6C1297.27 72.4667 1297 68.6667 1296.47 65.2C1295.93 61.7333 1294.6 58.9333 1292.47 56.8C1290.33 54.6667 1286.87 53.6 1282.07 53.6C1276.87 53.6 1272.2 55.2 1268.07 58.4C1264.07 61.6 1260.87 65.9333 1258.47 71.4C1256.2 76.8667 1255.07 83 1255.07 89.8L1254.47 71.2C1258.07 62 1262.93 55.7333 1269.07 52.4C1275.2 48.9333 1281.47 47.2 1287.87 47.2ZM1388.21 47.2C1396.74 47.2 1404.41 49.0667 1411.21 52.8C1418.01 56.5333 1423.41 62.4 1427.41 70.4C1431.54 78.4 1433.61 88.8 1433.61 101.6C1433.61 114.4 1431.54 124.8 1427.41 132.8C1423.41 140.667 1418.01 146.467 1411.21 150.2C1404.41 153.933 1396.74 155.8 1388.21 155.8C1379.81 155.8 1372.14 153.933 1365.21 150.2C1358.41 146.467 1352.94 140.667 1348.81 132.8C1344.81 124.8 1342.81 114.4 1342.81 101.6C1342.81 88.8 1344.81 78.4 1348.81 70.4C1352.94 62.4 1358.41 56.5333 1365.21 52.8C1372.14 49.0667 1379.81 47.2 1388.21 47.2ZM1388.21 51.2C1380.61 51.2 1374.34 55.1333 1369.41 63C1364.61 70.8667 1362.21 83.7333 1362.21 101.6C1362.21 119.467 1364.61 132.333 1369.41 140.2C1374.34 147.933 1380.61 151.8 1388.21 151.8C1395.81 151.8 1402.01 147.933 1406.81 140.2C1411.74 132.333 1414.21 119.467 1414.21 101.6C1414.21 83.7333 1411.74 70.8667 1406.81 63C1402.01 55.1333 1395.81 51.2 1388.21 51.2ZM1510.98 47.2C1514.58 47.2 1517.71 47.9333 1520.38 49.4C1523.18 50.8667 1525.31 52.8 1526.78 55.2C1528.38 57.4667 1529.18 60.0667 1529.18 63C1529.18 66.3333 1528.11 69.2667 1525.98 71.8C1523.98 74.3333 1521.24 75.6 1517.78 75.6C1514.98 75.6 1512.51 74.7333 1510.38 73C1508.24 71.1333 1507.18 68.5333 1507.18 65.2C1507.18 62.6667 1507.84 60.5333 1509.18 58.8C1510.64 56.9333 1512.24 55.4667 1513.98 54.4C1513.04 53.0667 1511.64 52.4 1509.78 52.4C1505.64 52.4 1501.84 53.6667 1498.38 56.2C1494.91 58.6 1491.98 61.7333 1489.58 65.6C1487.18 69.4667 1485.31 73.6 1483.98 78C1482.64 82.2667 1481.98 86.2667 1481.98 90V132.4C1481.98 138.933 1483.84 143.333 1487.58 145.6C1491.44 147.733 1496.64 148.8 1503.18 148.8V153C1500.11 152.867 1495.78 152.733 1490.18 152.6C1484.58 152.333 1478.64 152.2 1472.38 152.2C1467.84 152.2 1463.31 152.333 1458.78 152.6C1454.38 152.733 1451.04 152.867 1448.78 153V148.8C1454.24 148.8 1458.11 147.8 1460.38 145.8C1462.78 143.8 1463.98 140 1463.98 134.4V71.8C1463.98 65.8 1462.91 61.4 1460.78 58.6C1458.64 55.6667 1454.64 54.2 1448.78 54.2V50C1453.04 50.4 1457.18 50.6 1461.18 50.6C1465.04 50.6 1468.71 50.4 1472.18 50C1475.78 49.4667 1479.04 48.7333 1481.98 47.8V72.8C1483.44 68.9333 1485.51 65.0667 1488.18 61.2C1490.98 57.2 1494.31 53.8667 1498.18 51.2C1502.04 48.5333 1506.31 47.2 1510.98 47.2ZM1630.84 50V54C1628.31 54.2667 1625.97 55.4 1623.84 57.4C1621.71 59.4 1619.71 62.9333 1617.84 68L1585.04 154H1581.64L1544.84 65.4C1542.31 60.2 1539.77 57.0667 1537.24 56C1534.84 54.8 1532.84 54.2 1531.24 54.2V50C1534.17 50.4 1537.24 50.7333 1540.44 51C1543.64 51.1333 1547.11 51.2 1550.84 51.2C1554.97 51.2 1559.31 51.0667 1563.84 50.8C1568.51 50.5333 1572.84 50.2667 1576.84 50V54.2C1573.51 54.2 1570.51 54.4667 1567.84 55C1565.31 55.4 1563.71 56.8 1563.04 59.2C1562.37 61.4667 1563.17 65.4 1565.44 71L1590.04 132L1588.84 132.4L1611.64 72.8C1613.37 68.4 1614.04 64.9333 1613.64 62.4C1613.37 59.7333 1612.04 57.7333 1609.64 56.4C1607.24 55.0667 1603.64 54.2667 1598.84 54V50C1601.24 50.1333 1603.31 50.2667 1605.04 50.4C1606.77 50.4 1608.44 50.4667 1610.04 50.6C1611.77 50.6 1613.64 50.6 1615.64 50.6C1618.71 50.6 1621.44 50.5333 1623.84 50.4C1626.37 50.2667 1628.71 50.1333 1630.84 50ZM1585.04 154L1578.24 171.4C1576.91 174.733 1575.51 177.533 1574.04 179.8C1572.71 182.067 1571.24 183.933 1569.64 185.4C1567.51 187.4 1564.97 188.733 1562.04 189.4C1559.11 190.2 1556.44 190.6 1554.04 190.6C1551.51 190.6 1549.17 190.133 1547.04 189.2C1545.04 188.267 1543.44 186.867 1542.24 185C1541.04 183.267 1540.44 181.133 1540.44 178.6C1540.44 175.4 1541.37 172.8 1543.24 170.8C1545.11 168.933 1547.71 168 1551.04 168C1553.84 168 1556.24 168.8 1558.24 170.4C1560.24 172 1561.24 174.333 1561.24 177.4C1561.24 179.667 1560.71 181.533 1559.64 183C1558.57 184.467 1557.31 185.6 1555.84 186.4C1556.11 186.533 1556.31 186.6 1556.44 186.6C1556.71 186.6 1556.91 186.6 1557.04 186.6C1560.64 186.6 1563.84 185.333 1566.64 182.8C1569.44 180.4 1571.91 176.467 1574.04 171L1581.24 152.4L1585.04 154Z" fill="white"/>
</svg>
